<?xml version="1.0" standalone="no"?>
<!DOCTYPE svg PUBLIC "-//W3C//DTD SVG 20010904//EN"
 "http://www.w3.org/TR/2001/REC-SVG-20010904/DTD/svg10.dtd">
<svg version="1.0" xmlns="http://www.w3.org/2000/svg"
 width="300.000000pt" height="79.000000pt" viewBox="0 0 300.000000 79.000000"
 preserveAspectRatio="xMidYMid meet">
<metadata>
Created by potrace 1.10, written by Peter Selinger 2001-2011
</metadata>
<g transform="translate(0.000000,79.000000) scale(0.100000,-0.100000)"
fill="#000000" stroke="none">
<path d="M780 631 c-36 -126 -47 -154 -75 -181 -17 -17 -45 -34 -61 -39 -19
-5 -29 -14 -29 -27 0 -15 6 -18 30 -15 17 1 39 8 50 13 37 19 84 71 90 100 12
54 79 62 111 13 16 -25 38 -33 48 -17 2 4 -10 73 -27 152 l-32 145 -31 3 -31
3 -43 -150z m84 117 c3 -7 7 -25 10 -39 5 -24 3 -26 -19 -21 -25 4 -31 24 -19
56 7 19 23 21 28 4z m9 -117 c11 -44 3 -63 -25 -59 -27 4 -36 44 -18 78 15 29
32 21 43 -19z m-55 -75 c-2 -1 -11 -7 -20 -14 -14 -11 -16 -10 -13 5 2 10 4
22 4 27 1 5 8 3 16 -4 9 -7 14 -13 13 -14z m91 -30 c1 -5 -8 -1 -19 9 -16 14
-17 20 -8 26 12 8 25 -10 27 -35z"/>
<path d="M1010 626 c0 -149 1 -156 20 -156 11 0 20 3 21 8 0 4 2 19 3 34 3 53
21 54 68 4 37 -38 51 -46 81 -46 45 0 51 25 8 35 -16 3 -39 17 -51 31 l-23 24
21 23 c46 49 50 123 7 166 -18 19 -37 25 -89 28 l-66 5 0 -156z m117 92 c31
-29 30 -71 -3 -97 -15 -12 -29 -21 -33 -21 -20 1 -34 23 -38 64 -9 72 27 98
74 54z m-57 -137 c0 -5 -7 -11 -15 -15 -8 -3 -15 -1 -15 3 0 5 -3 17 -7 26 -5
15 -3 16 15 6 12 -7 22 -16 22 -20z"/>
<path d="M1270 760 c0 -13 7 -20 20 -20 32 0 40 -32 40 -155 0 -106 2 -116 18
-113 15 3 17 18 20 122 3 121 10 146 42 146 18 0 34 23 23 34 -4 3 -42 6 -85
6 -71 0 -78 -2 -78 -20z m90 -14 c0 -8 -4 -17 -9 -20 -10 -7 -23 19 -14 28 11
11 23 6 23 -8z"/>
<path d="M1502 628 c3 -136 5 -153 21 -156 16 -3 17 9 17 152 0 150 -1 156
-20 156 -20 0 -20 -5 -18 -152z"/>
<path d="M1610 758 c-11 -12 -20 -35 -20 -53 0 -34 20 -57 82 -94 46 -27 60
-49 47 -73 -12 -23 -66 -24 -90 -2 -19 17 -39 12 -39 -10 0 -22 46 -46 87 -46
50 0 81 22 89 65 8 46 -14 79 -72 106 -51 25 -72 53 -53 75 15 18 43 18 59 -1
16 -19 34 -19 49 -1 9 11 6 18 -15 35 -36 29 -97 28 -124 -1z"/>
<path d="M1887 773 c-14 -22 -75 -289 -68 -296 9 -9 41 1 41 13 0 16 31 40 51
40 10 0 33 -14 51 -30 63 -61 66 -38 20 135 -35 133 -39 140 -64 143 -14 2
-29 -1 -31 -5z m43 -42 c14 -27 13 -44 -2 -38 -7 2 -20 0 -30 -4 -14 -8 -15
-5 -5 26 12 40 22 44 37 16z m8 -103 c13 -49 9 -58 -24 -58 -21 0 -24 5 -24
34 0 75 31 91 48 24z m-72 -89 c-17 -25 -20 -19 -10 19 5 15 10 20 16 14 7 -7
5 -18 -6 -33z m110 16 c10 -24 0 -34 -20 -20 -10 8 -15 18 -11 24 9 16 25 14
31 -4z"/>
<path d="M2065 635 c2 -80 7 -149 10 -155 16 -27 24 -2 27 83 2 53 7 92 13 92
6 0 29 -39 52 -87 37 -76 46 -88 68 -88 l25 0 0 150 c0 143 -1 150 -20 150
-18 0 -20 -7 -20 -86 0 -108 -17 -110 -63 -9 -43 93 -44 95 -72 95 l-24 0 4
-145z m53 77 c8 -24 7 -28 -9 -29 -15 -1 -19 4 -17 28 3 37 13 37 26 1z m112
-152 c0 -46 -10 -51 -27 -13 -17 35 -16 41 5 46 9 3 18 5 20 6 1 0 2 -17 2
-39z"/>
<path d="M2363 450 l-17 -30 -768 0 c-575 0 -769 -3 -774 -12 -5 -8 -2 -9 10
-5 10 4 453 7 985 7 l967 0 17 29 c23 40 22 41 -21 41 -31 0 -43 -6 -60 -30
-27 -36 -51 -41 -28 -5 22 34 21 35 -23 35 -33 0 -43 -5 -61 -30 -26 -36 -49
-41 -26 -5 22 34 21 35 -23 35 -33 0 -44 -6 -65 -32 -14 -18 -28 -29 -32 -25
-4 4 0 15 9 25 25 28 21 32 -27 32 -39 0 -47 -4 -63 -30z m67 1 c0 -11 -31
-24 -39 -16 -3 3 1 10 9 15 19 12 30 12 30 1z m96 -13 c-10 -6 -20 -7 -24 -3
-9 8 20 25 31 18 5 -3 2 -10 -7 -15z m124 12 c0 -13 -28 -25 -38 -16 -3 4 0
11 8 16 20 13 30 12 30 0z m110 -1 c0 -12 -19 -21 -30 -14 -6 4 -8 10 -6 14 7
10 36 10 36 0z"/>
<path d="M2815 470 c-4 -6 12 -10 39 -10 25 0 46 5 46 10 0 6 -18 10 -39 10
-22 0 -43 -4 -46 -10z"/>
<path d="M278 463 c34 -2 88 -2 120 0 31 2 3 3 -63 3 -66 0 -92 -1 -57 -3z"/>
<path d="M2908 433 c12 -2 30 -2 40 0 9 3 -1 5 -23 4 -22 0 -30 -2 -17 -4z"/>
<path d="M2816 414 l-28 -16 33 -20 c33 -20 33 -20 73 0 l41 19 -32 17 c-39
20 -50 20 -87 0z m59 -14 c3 -5 -3 -10 -14 -10 -12 0 -21 5 -21 10 0 6 6 10
14 10 8 0 18 -4 21 -10z"/>
<path d="M143 413 c82 -2 212 -2 290 0 78 1 12 3 -148 3 -160 0 -223 -2 -142
-3z"/>
<path d="M2953 393 c9 -2 25 -2 35 0 9 3 1 5 -18 5 -19 0 -27 -2 -17 -5z"/>
<path d="M0 379 c0 -5 111 -9 281 -9 169 0 278 4 274 9 -7 13 -555 13 -555 0z"/>
<path d="M770 381 c-11 -8 224 -11 781 -11 l797 0 16 -25 c14 -21 24 -25 63
-25 46 0 46 0 28 20 -10 11 -15 23 -11 28 4 4 18 -5 30 -21 18 -22 30 -27 64
-27 l42 0 -16 25 c-10 15 -12 25 -5 25 6 0 18 -11 27 -25 13 -21 24 -25 61
-25 l45 0 -16 25 c-13 20 -14 25 -3 25 8 0 20 -11 27 -25 11 -21 21 -25 57
-25 48 0 51 4 24 39 l-19 24 -988 4 c-679 3 -994 1 -1004 -6z m1645 -31 c3 -5
-1 -10 -9 -10 -9 0 -16 5 -16 10 0 6 4 10 9 10 6 0 13 -4 16 -10z m115 0 c0
-5 -4 -10 -9 -10 -6 0 -13 5 -16 10 -3 6 1 10 9 10 9 0 16 -4 16 -10z m115 0
c3 -5 -1 -10 -9 -10 -8 0 -18 5 -21 10 -3 6 1 10 9 10 8 0 18 -4 21 -10z m105
0 c0 -5 -4 -10 -9 -10 -6 0 -13 5 -16 10 -3 6 1 10 9 10 9 0 16 -4 16 -10z"/>
<path d="M2905 359 c-27 -6 -26 -7 13 -8 23 0 42 3 42 7 0 10 -14 10 -55 1z"/>
<path d="M663 330 c-22 -9 -49 -48 -40 -57 3 -2 8 4 11 15 4 11 20 25 35 32
37 15 68 0 77 -37 6 -23 -1 -33 -55 -82 -34 -31 -61 -59 -61 -63 0 -5 33 -8
74 -8 41 0 77 3 79 8 3 4 7 23 11 42 5 30 5 32 -5 13 -9 -17 -24 -23 -66 -29
-66 -8 -76 -1 -33 23 73 40 95 59 98 84 5 47 -70 83 -125 59z"/>
<path d="M857 328 c-28 -10 -44 -45 -33 -74 8 -21 60 -15 64 9 5 26 -28 34
-45 11 -14 -18 -14 -18 -11 6 2 16 14 30 32 38 71 35 107 -44 44 -96 -17 -15
-46 -40 -62 -57 l-31 -30 79 -3 c43 -2 80 -2 81 0 2 2 6 21 9 43 5 31 4 35 -3
18 -6 -13 -18 -24 -28 -25 -62 -5 -93 -5 -93 0 0 4 25 20 55 36 31 16 60 37
66 48 15 29 1 58 -37 74 -38 16 -48 16 -87 2z"/>
<path d="M1055 331 c-33 -14 -48 -38 -41 -67 5 -20 12 -25 34 -22 31 3 43 35
16 45 -11 4 -22 -1 -30 -12 -13 -18 -14 -18 -14 2 0 24 16 39 50 48 29 7 55
-10 65 -43 6 -19 -1 -31 -37 -64 l-43 -40 35 17 c90 45 112 82 71 119 -22 20
-78 29 -106 17z"/>
<path d="M2813 324 c10 -10 87 -12 87 -3 0 5 -21 9 -47 9 -25 0 -43 -3 -40 -6z"/>
<path d="M1250 310 c0 -6 5 -8 10 -5 6 4 10 -12 10 -39 0 -26 -5 -46 -11 -46
-5 0 -7 -4 -4 -10 8 -13 91 -13 116 0 19 11 27 50 10 50 -6 0 -9 12 -8 28 2
26 1 27 -60 30 -41 2 -63 -1 -63 -8z m106 -11 c8 -14 -14 -29 -43 -29 -16 0
-23 6 -23 20 0 15 7 20 29 20 17 0 33 -5 37 -11z m9 -59 c0 -10 -12 -16 -37
-18 -33 -3 -38 0 -38 18 0 18 5 21 38 18 25 -2 37 -8 37 -18z"/>
<path d="M1444 270 c-15 -27 -31 -50 -36 -50 -4 0 -8 -4 -8 -10 0 -5 12 -10
26 -10 21 0 24 4 19 20 -6 17 -2 20 29 20 19 0 38 -4 41 -10 3 -5 1 -10 -4
-10 -6 0 -11 -4 -11 -8 0 -5 14 -9 30 -9 17 0 30 4 30 9 0 4 -4 8 -8 8 -5 0
-19 23 -32 50 -13 28 -29 50 -36 50 -7 0 -25 -22 -40 -50z m55 -12 c1 -5 -8
-8 -19 -8 -23 0 -24 4 -8 33 11 21 11 21 19 2 4 -11 8 -23 8 -27z"/>
<path d="M1588 308 c14 -14 16 -88 2 -88 -5 0 -10 -4 -10 -8 0 -5 14 -9 30
-10 17 0 30 4 30 9 0 5 -4 9 -10 9 -5 0 -10 9 -10 20 0 11 5 20 12 20 18 0 47
-31 42 -44 -3 -8 5 -13 26 -13 16 0 30 2 30 4 0 3 -13 16 -30 30 -16 13 -30
28 -30 31 0 4 15 17 33 30 l32 22 -30 0 c-22 0 -33 -6 -40 -22 -13 -30 -45
-37 -45 -10 0 11 6 23 13 25 6 3 -4 6 -22 6 -27 1 -32 -2 -23 -11z"/>
<path d="M1758 308 c14 -14 16 -88 2 -88 -5 0 -10 -4 -10 -8 0 -5 28 -8 63 -8
56 1 62 3 65 24 2 12 -1 22 -7 22 -6 0 -11 -7 -11 -15 0 -10 -11 -15 -35 -15
-28 0 -35 4 -35 20 0 13 7 20 20 20 11 0 20 -4 20 -10 0 -5 5 -10 10 -10 6 0
10 11 10 25 0 14 -4 25 -10 25 -5 0 -10 -4 -10 -10 0 -5 -9 -10 -20 -10 -11 0
-20 6 -20 14 0 19 60 27 67 9 8 -20 23 -16 23 7 0 18 -7 20 -67 20 -52 0 -64
-3 -55 -12z"/>
<path d="M1900 310 c0 -5 5 -10 10 -10 6 0 10 -18 10 -40 0 -22 -4 -40 -10
-40 -5 0 -10 -4 -10 -8 0 -5 14 -9 30 -9 17 0 30 4 30 9 0 4 -4 8 -10 8 -5 0
-10 7 -10 15 0 24 38 17 56 -10 17 -25 48 -33 59 -15 3 6 0 10 -7 10 -8 0 -19
5 -26 12 -9 9 -8 16 5 30 29 33 6 53 -66 56 -38 2 -61 -1 -61 -8z m105 -25 c0
-15 -8 -21 -32 -23 -30 -3 -33 -1 -33 23 0 24 3 26 33 23 24 -2 32 -8 32 -23z"/>
<path d="M2081 281 c38 -38 49 -61 29 -61 -5 0 -10 -4 -10 -8 0 -5 14 -9 30
-9 17 0 30 4 30 9 0 4 -4 8 -10 8 -19 0 -9 25 25 63 l34 37 -37 0 c-24 0 -32
-3 -23 -9 10 -7 11 -13 2 -30 -7 -11 -15 -21 -19 -21 -12 0 -33 40 -27 50 4 6
-9 10 -28 10 l-35 0 39 -39z"/>
<path d="M647 272 c-20 -22 -13 -32 20 -32 19 0 24 5 21 22 -4 29 -21 33 -41
10z"/>
<path d="M2530 270 c0 -6 28 -10 65 -10 37 0 65 4 65 10 0 6 -28 10 -65 10
-37 0 -65 -4 -65 -10z"/>
<path d="M2527 230 c-5 -19 -11 -20 -116 -15 -113 6 -151 -2 -151 -30 0 -29
38 -36 158 -30 64 3 118 10 120 15 5 13 32 0 32 -16 0 -22 36 -17 63 9 13 12
27 35 31 51 6 26 6 27 -9 12 -9 -9 -13 -20 -10 -26 11 -18 -43 -35 -76 -23
-17 7 -31 7 -35 2 -8 -14 -34 -11 -34 5 0 7 8 16 18 19 18 4 38 47 22 47 -4 0
-10 -9 -13 -20z m-143 -36 c32 -12 15 -24 -34 -24 -46 0 -60 7 -43 23 8 9 56
9 77 1z m223 -40 c-3 -3 -12 -4 -19 -1 -8 3 -5 6 6 6 11 1 17 -2 13 -5z"/>
<path d="M2580 240 c-24 -8 -23 -8 8 -9 20 -1 31 3 27 9 -3 6 -7 10 -8 9 -1
-1 -13 -5 -27 -9z"/>
<path d="M1170 190 c0 -14 -7 -21 -22 -22 -85 -6 -98 -5 -98 5 -1 13 -30 -22
-30 -35 0 -4 33 -8 74 -8 l74 0 10 40 c5 23 6 40 1 40 -5 0 -9 -9 -9 -20z"/>
<path d="M1298 153 c-12 -3 -18 -14 -18 -33 0 -16 -4 -32 -10 -35 -15 -9 -12
-51 4 -64 14 -12 21 -12 131 -11 54 1 58 2 36 13 -31 15 -36 31 -16 51 9 9 15
16 13 17 -2 0 -18 1 -36 2 -32 2 -43 -7 -19 -16 6 -2 9 -8 5 -12 -9 -10 -90
54 -82 66 9 15 64 10 70 -6 8 -21 24 -19 24 4 0 24 -53 37 -102 24z m42 -93
c30 -24 32 -30 17 -35 -41 -16 -84 15 -71 50 8 20 14 19 54 -15z"/>
<path d="M1512 148 c-25 -12 -37 -46 -28 -76 14 -45 126 -54 126 -11 0 10 -4
19 -10 19 -5 0 -10 -7 -10 -15 0 -20 -54 -20 -74 1 -19 18 -20 28 -6 55 13 24
80 28 80 4 0 -8 5 -15 10 -15 6 0 10 8 10 19 0 29 -54 40 -98 19z"/>
<path d="M1704 152 c-6 -4 -19 -22 -28 -40 -9 -18 -26 -42 -37 -53 -19 -19
-19 -19 11 -19 22 0 28 4 24 15 -5 12 2 15 29 15 37 0 57 -14 35 -23 -7 -3 3
-6 22 -6 19 0 30 3 24 7 -6 4 -23 31 -38 60 -14 28 -27 52 -29 52 -1 0 -7 -4
-13 -8z m26 -63 c0 -3 -11 -4 -24 -2 -22 5 -23 8 -13 24 11 18 13 18 25 2 6
-9 12 -20 12 -24z"/>
<path d="M1860 150 c-36 -4 -59 -7 -52 -8 7 -1 12 -18 12 -46 0 -26 -5 -46
-12 -49 -7 -3 5 -5 27 -5 22 0 34 2 28 5 -17 6 -17 43 0 43 7 0 18 -5 25 -12
9 -9 12 -6 12 17 0 23 -3 26 -12 17 -18 -18 -38 -14 -38 8 0 26 47 28 66 3 12
-16 13 -15 14 10 0 15 -1 26 -2 25 -2 -1 -32 -4 -68 -8z"/>
<path d="M2000 150 c-36 -4 -59 -7 -52 -8 7 -1 12 -18 12 -46 0 -26 -5 -46
-12 -49 -7 -3 17 -6 53 -6 53 -1 68 2 73 15 9 24 -3 32 -15 11 -15 -25 -69
-23 -69 3 0 22 35 28 43 8 3 -7 6 -1 6 13 1 23 -2 26 -24 21 -18 -3 -25 0 -25
12 0 22 49 21 66 -1 12 -16 13 -15 14 10 0 15 -1 26 -2 25 -2 -1 -32 -4 -68
-8z"/>
</g>
</svg>
